<svg width="124" height="24" viewBox="0 0 124 24" fill="none" xmlns="http://www.w3.org/2000/svg">
<path d="M0.39209 1.80118H4.7869V19.0114H0.39209V1.80118ZM6.53016 12.5133C6.53016 8.2568 9.22564 5.71712 13.3861 5.71712C17.5465 5.71712 20.2419 8.2568 20.2419 12.5133C20.2419 16.7697 17.6051 19.3236 13.3861 19.3236C9.16704 19.3236 6.53016 16.8406 6.53016 12.5133ZM15.8325 12.5133C15.8325 10.1722 14.8803 8.79595 13.3861 8.79595C11.8918 8.79595 10.9543 10.2148 10.9543 12.5133C10.9543 14.8117 11.8772 16.2022 13.3861 16.2022C14.8949 16.2022 15.8325 14.8969 15.8325 12.5274V12.5133ZM21.8973 19.8485H26.1163C26.3171 20.2806 26.6566 20.6383 27.0842 20.8683C27.5118 21.0984 28.0047 21.1886 28.4895 21.1255C30.1596 21.1255 31.0385 20.2458 31.0385 18.9689V16.5853H30.9506C30.6005 17.3158 30.0323 17.928 29.3194 18.3427C28.6066 18.7575 27.7817 18.9558 26.9514 18.9121C23.7431 18.9121 21.619 16.5427 21.619 12.4707C21.619 8.39868 23.6406 5.83062 27.0099 5.83062C27.8663 5.79811 28.7125 6.01986 29.4352 6.46616C30.1578 6.91246 30.7224 7.562 31.0532 8.32774V8.32774V5.95832H35.448V18.8696C35.448 21.9768 32.6206 23.9064 28.4456 23.9064C24.5635 23.9064 22.1464 22.218 21.8973 19.8627V19.8485ZM31.0532 12.4991C31.0532 10.4276 30.0717 9.12228 28.5188 9.12228C26.966 9.12228 26.0138 10.4134 26.0138 12.4991C26.0138 14.5847 26.9514 15.7623 28.5188 15.7623C30.0863 15.7623 31.0532 14.6131 31.0532 12.5133V12.4991ZM37.1033 12.4991C37.1033 8.24262 39.7988 5.70293 43.9592 5.70293C48.1197 5.70293 50.8298 8.24262 50.8298 12.4991C50.8298 16.7555 48.1929 19.3094 43.9592 19.3094C39.7256 19.3094 37.1033 16.8406 37.1033 12.5133V12.4991ZM46.4057 12.4991C46.4057 10.158 45.4535 8.78177 43.9592 8.78177C42.465 8.78177 41.6007 10.2148 41.6007 12.5274C41.6007 14.8401 42.5236 16.2164 44.0178 16.2164C45.5121 16.2164 46.4057 14.8969 46.4057 12.5274V12.4991ZM52.4998 2.8653C52.4883 2.43554 52.6088 2.01216 52.846 1.64881C53.0832 1.28546 53.4265 0.998507 53.8323 0.824333C54.2381 0.650158 54.6882 0.596605 55.1255 0.670459C55.5627 0.744314 55.9675 0.942251 56.2885 1.23918C56.6095 1.53611 56.8322 1.91866 56.9284 2.33833C57.0247 2.758 56.9901 3.19589 56.8291 3.5965C56.668 3.99711 56.3878 4.34239 56.0239 4.58857C55.66 4.83476 55.2289 4.97076 54.7851 4.97934C54.4909 4.99891 54.1957 4.95935 53.9181 4.86315C53.6404 4.76696 53.3863 4.61619 53.1717 4.42033C52.9571 4.22446 52.7866 3.98774 52.671 3.72502C52.5554 3.46229 52.4971 3.17926 52.4998 2.89367V2.8653ZM52.4998 5.9867H56.8946V19.0114H52.4998V5.9867ZM72.8477 12.4991C72.8477 16.7555 70.8994 19.1817 67.5593 19.1817C66.7029 19.2349 65.8502 19.0322 65.1166 18.6008C64.383 18.1694 63.8038 17.5302 63.4575 16.7697H63.3696V23.1828H58.9748V5.95832H63.3696V8.28518H63.4575C63.7877 7.51209 64.3558 6.85628 65.0845 6.40694C65.8132 5.95761 66.6671 5.73656 67.53 5.77387C70.8994 5.83062 72.9063 8.27099 72.9063 12.5274L72.8477 12.4991ZM68.4529 12.4991C68.4529 10.4276 67.4714 9.10809 65.9333 9.10809C64.3951 9.10809 63.4136 10.4418 63.3989 12.4991C63.3843 14.5564 64.3951 15.8759 65.9333 15.8759C67.4714 15.8759 68.4529 14.5847 68.4529 12.5274V12.4991ZM80.3922 5.68875C84.0398 5.68875 86.2519 7.36295 86.3544 10.0445H82.3552C82.3552 9.12228 81.5641 8.54057 80.3482 8.54057C79.1323 8.54057 78.5903 8.99459 78.5903 9.66143C78.5903 10.3283 79.0737 10.5411 80.0552 10.7397L82.8679 11.2931C85.5487 11.8464 86.6914 12.8963 86.6914 14.8685C86.6914 17.5642 84.157 19.2952 80.4215 19.2952C76.6859 19.2952 74.2394 17.5642 74.049 14.9111H78.2827C78.4145 15.8759 79.2056 16.4434 80.4947 16.4434C81.7838 16.4434 82.3698 16.0319 82.3698 15.3509C82.3698 14.6699 81.9596 14.528 80.9049 14.3152L78.3705 13.7902C75.7483 13.2652 74.3713 11.9174 74.3713 9.93101C74.4006 7.37713 76.7591 5.71712 80.3922 5.71712V5.68875ZM101.355 18.9831H97.1217V16.5569H97.0338C96.8011 17.3715 96.2877 18.0844 95.5789 18.5774C94.87 19.0703 94.0084 19.3136 93.1371 19.2668C92.4694 19.3036 91.8013 19.2011 91.178 18.9663C90.5547 18.7316 89.9907 18.3699 89.5241 17.9059C89.0575 17.4419 88.6991 16.8863 88.4733 16.2766C88.2474 15.6669 88.1593 15.0174 88.2149 14.3719V5.95832H92.6097V13.3929C92.6097 14.9394 93.4301 15.7623 94.7925 15.7623C95.1119 15.763 95.4279 15.6975 95.719 15.5702C96.0102 15.4429 96.27 15.2568 96.4808 15.0244C96.6917 14.7919 96.8488 14.5185 96.9416 14.2225C97.0345 13.9264 97.0609 13.6146 97.0192 13.3078V5.95832H101.414L101.355 18.9831ZM103.48 5.95832H107.728V8.46963H107.816C108.049 7.66584 108.551 6.95963 109.243 6.46156C109.934 5.9635 110.777 5.70169 111.639 5.71712C112.516 5.64911 113.387 5.90328 114.079 6.42907C114.772 6.95487 115.234 7.71375 115.375 8.55476H115.463C115.728 7.7048 116.279 6.96464 117.027 6.45089C117.775 5.93714 118.678 5.679 119.594 5.71712C120.191 5.69768 120.787 5.80023 121.341 6.01813C121.895 6.23602 122.395 6.56438 122.81 6.98187C123.224 7.39936 123.543 7.89664 123.747 8.44139C123.95 8.98614 124.032 9.56619 123.989 10.1438V19.0114H119.594V11.2789C119.594 9.86007 118.935 9.20741 117.704 9.20741C117.43 9.20516 117.158 9.25994 116.907 9.36805C116.657 9.47615 116.433 9.63508 116.251 9.8341C116.069 10.0331 115.933 10.2676 115.853 10.5217C115.773 10.7759 115.749 11.0437 115.785 11.3073V19.0114H111.61V11.2221C111.61 9.91682 110.951 9.20741 109.749 9.20741C109.472 9.20749 109.198 9.26457 108.944 9.37486C108.691 9.48516 108.465 9.64618 108.281 9.84729C108.097 10.0484 107.959 10.285 107.876 10.5416C107.794 10.7981 107.768 11.0688 107.801 11.3356V19.0114H103.406L103.48 5.95832Z" fill="#4B4B4B"/>
</svg>
