<svg width="40" height="40" viewBox="0 0 40 40" fill="none" xmlns="http://www.w3.org/2000/svg">
<path d="M38.1013 12.5817C37.3558 10.9308 36.3691 9.39215 35.1715 8.01316C33.401 5.91379 31.1916 4.20135 28.6886 2.98857C26.1857 1.77578 23.4459 1.09014 20.6496 0.976761C17.8533 0.863386 15.0639 1.32485 12.465 2.33078C9.86614 3.33672 7.51669 4.86431 5.57129 6.81302C3.62589 8.76173 2.12865 11.0874 1.17813 13.6369C0.227602 16.1864 -0.154663 18.902 0.0564947 21.6049C0.267652 24.3078 1.06744 26.9368 2.40323 29.3187C3.73901 31.7007 5.5805 33.7817 7.8065 35.4247C9.23482 36.5 10.8131 37.3742 12.4943 38.0211C14.8514 38.9567 17.3741 39.4386 19.9215 39.44C25.1797 39.4287 30.2189 37.3987 33.9343 33.7949C37.6497 30.1912 39.7382 25.3077 39.7421 20.215C39.7459 17.5881 39.1873 14.9889 38.1013 12.5817V12.5817ZM19.9069 4.87757C22.1944 4.87733 24.4544 5.36158 26.5284 6.29638V6.29638C26.0226 6.50803 25.4909 6.65585 24.9462 6.73622C23.154 6.98749 21.4938 7.79335 20.2133 9.03353C18.9328 10.2737 18.1007 11.8817 17.8413 13.6175C17.7274 14.591 17.2703 15.4966 16.547 16.1816C15.8238 16.8665 14.8787 17.2889 13.8713 17.3774C12.0791 17.6286 10.4189 18.4345 9.13837 19.6747C7.85788 20.9148 7.02583 22.5228 6.7664 24.2586C6.67856 25.1842 6.2708 26.0541 5.6091 26.7274V26.7274C4.46741 24.3909 3.95453 21.8128 4.11819 19.2328C4.28186 16.6528 5.11674 14.1548 6.54514 11.9713C7.97355 9.78781 9.94906 7.98977 12.2878 6.74452C14.6266 5.49926 17.2526 4.84726 19.9215 4.84919L19.9069 4.87757ZM7.79185 30.1467C7.96764 29.9906 8.14344 29.8488 8.31923 29.6785C9.62251 28.4547 10.4591 26.8392 10.6924 25.0957C10.787 24.1157 11.2388 23.2002 11.9669 22.5135C12.6675 21.8071 13.6105 21.3732 14.6184 21.2933C16.4107 21.042 18.0709 20.2362 19.3514 18.996C20.6319 17.7558 21.4639 16.1478 21.7234 14.412C21.7867 13.3869 22.2409 12.4212 22.9979 11.7021C23.7158 11.0095 24.6678 10.5913 25.6787 10.5245C27.3252 10.3051 28.8607 9.59615 30.0735 8.49556C31.4544 9.60517 32.6244 10.94 33.5307 12.4399C33.4751 12.5127 33.4112 12.5793 33.3403 12.6385C32.641 13.351 31.6992 13.7945 30.6888 13.8871C28.8947 14.1339 27.232 14.9384 25.9506 16.1794C24.6693 17.4203 23.8387 19.0308 23.5838 20.7683C23.4806 21.7451 23.0319 22.6572 22.3137 23.3502C21.5955 24.0432 20.652 24.4744 19.6432 24.5708C17.8457 24.8201 16.1793 25.6243 14.8914 26.864C13.6035 28.1037 12.7628 29.7127 12.4943 31.452C12.4154 32.1454 12.1696 32.8112 11.7765 33.3958C10.2734 32.5315 8.9273 31.4339 7.79185 30.1467V30.1467ZM19.9069 35.6233C18.4203 35.6249 16.941 35.4243 15.5121 35.0274C16.0008 34.1449 16.3186 33.1832 16.4496 32.1898C16.5523 31.2152 16.9989 30.3048 17.7141 29.6121C18.4293 28.9194 19.3694 28.4868 20.3756 28.3874C22.1705 28.1389 23.8341 27.3343 25.1174 26.0939C26.4008 24.8535 27.235 23.244 27.4952 21.5061C27.5979 20.5315 28.0445 19.6211 28.7597 18.9284C29.4749 18.2357 30.415 17.8031 31.4212 17.7037C32.7719 17.5335 34.0593 17.0465 35.1715 16.2849C35.789 18.552 35.8622 20.926 35.3853 23.2248C34.9085 25.5236 33.8943 27.686 32.4205 29.5462C30.9468 31.4064 29.0527 32.9149 26.8835 33.9561C24.7143 34.9972 22.3278 35.5433 19.9069 35.5524V35.6233Z" fill="#4B4B4B"/>
</svg>
